<svg width="16" height="16" viewBox="0 0 16 16" fill="none" xmlns="http://www.w3.org/2000/svg">
<path d="M4.53335 2.3C5.11335 1.95333 5.74668 1.68667 6.42002 1.52C6.53115 1.85103 6.74346 2.1388 7.02696 2.34267C7.31045 2.54654 7.65083 2.65622 8.00002 2.65622C8.34921 2.65622 8.68958 2.54654 8.97308 2.34267C9.25658 2.1388 9.46888 1.85103 9.58002 1.52C10.2533 1.68667 10.8867 1.95333 11.46 2.3C11.3012 2.61339 11.2455 2.96894 11.3009 3.31587C11.3562 3.6628 11.5198 3.98336 11.7682 4.23178C12.0167 4.4802 12.3372 4.64377 12.6841 4.69912C13.0311 4.75447 13.3866 4.69878 13.7 4.54C14.0467 5.11333 14.3133 5.74 14.48 6.42C14.149 6.53114 13.8612 6.74344 13.6573 7.02694C13.4535 7.31044 13.3438 7.65081 13.3438 8C13.3438 8.34919 13.4535 8.68956 13.6573 8.97306C13.8612 9.25656 14.149 9.46886 14.48 9.58C14.3133 10.2533 14.0467 10.8867 13.7 11.46C13.3866 11.3012 13.0311 11.2455 12.6841 11.3009C12.3372 11.3562 12.0167 11.5198 11.7682 11.7682C11.5198 12.0166 11.3562 12.3372 11.3009 12.6841C11.2455 13.0311 11.3012 13.3866 11.46 13.7C10.8867 14.0467 10.26 14.3133 9.58002 14.48C9.46888 14.149 9.25658 13.8612 8.97308 13.6573C8.68958 13.4535 8.34921 13.3438 8.00002 13.3438C7.65083 13.3438 7.31045 13.4535 7.02696 13.6573C6.74346 13.8612 6.53115 14.149 6.42002 14.48C5.74668 14.3133 5.11335 14.0467 4.54002 13.7C4.6988 13.3866 4.75449 13.0311 4.69914 12.6841C4.64379 12.3372 4.48022 12.0166 4.2318 11.7682C3.98338 11.5198 3.66282 11.3562 3.31589 11.3009C2.96896 11.2455 2.61341 11.3012 2.30002 11.46C1.94476 10.8772 1.68165 10.2431 1.52002 9.58C1.85105 9.46886 2.13882 9.25656 2.34269 8.97306C2.54656 8.68956 2.65624 8.34919 2.65624 8C2.65624 7.65081 2.54656 7.31044 2.34269 7.02694C2.13882 6.74344 1.85105 6.53114 1.52002 6.42C1.68669 5.74667 1.95335 5.11333 2.30002 4.54C2.61341 4.69878 2.96896 4.75447 3.31589 4.69912C3.66282 4.64377 3.98338 4.4802 4.2318 4.23178C4.48022 3.98336 4.64379 3.6628 4.69914 3.31587C4.75449 2.96894 4.6988 2.61339 4.54002 2.3H4.53335ZM8.00002 10.6667C8.70726 10.6667 9.38554 10.3857 9.88563 9.88562C10.3857 9.38552 10.6667 8.70724 10.6667 8C10.6667 7.29275 10.3857 6.61448 9.88563 6.11438C9.38554 5.61428 8.70726 5.33333 8.00002 5.33333C7.29277 5.33333 6.6145 5.61428 6.1144 6.11438C5.6143 6.61448 5.33335 7.29275 5.33335 8C5.33335 8.70724 5.6143 9.38552 6.1144 9.88562C6.6145 10.3857 7.29277 10.6667 8.00002 10.6667V10.6667Z" fill="#CFCFCF"/>
<path d="M8.00008 9.33333C8.73646 9.33333 9.33341 8.73638 9.33341 8C9.33341 7.26362 8.73646 6.66667 8.00008 6.66667C7.2637 6.66667 6.66675 7.26362 6.66675 8C6.66675 8.73638 7.2637 9.33333 8.00008 9.33333Z" fill="#CFCFCF"/>
</svg>
