<svg width="200" height="38" viewBox="0 0 200 38" fill="none" xmlns="http://www.w3.org/2000/svg">
<path d="M174.898 19.1612C173.873 18.4933 172.756 18.0097 171.697 17.4109C171.006 17.0309 170.269 16.6855 169.67 16.1903C168.657 15.3612 168.864 13.7145 169.924 13.0006C171.455 11.9873 173.977 12.5515 174.253 14.6242C174.253 14.6703 174.299 14.7048 174.345 14.7048H176.648C176.706 14.7048 176.752 14.6588 176.729 14.5897C176.709 13.9377 176.548 13.2978 176.258 12.7135C175.968 12.1293 175.555 11.6145 175.048 11.2042C174.111 10.4815 172.961 10.0888 171.777 10.0873C165.697 10.0873 165.133 16.5242 168.415 18.5509C168.795 18.7812 172.008 20.3933 173.136 21.0958C174.288 21.7982 174.633 23.0879 174.15 24.0897C173.689 25.0224 172.537 25.6673 171.363 25.5867C170.096 25.5176 169.106 24.8267 168.76 23.7558C168.703 23.56 168.668 23.18 168.668 23.0303C168.666 23.0067 168.655 22.9847 168.639 22.968C168.622 22.9512 168.6 22.9407 168.576 22.9382H166.077C166.043 22.9382 165.997 22.9842 165.997 23.0303C165.997 24.8267 166.446 25.8285 167.667 26.7382C168.818 27.6018 170.085 27.9703 171.374 27.9703C174.794 27.9703 176.556 26.0358 176.902 24.0436C177.224 22.0861 176.648 20.3242 174.898 19.1612ZM66.4253 10.4212H64.0993C64.0821 10.4233 64.0657 10.4297 64.0516 10.4397C64.0376 10.4498 64.0262 10.4632 64.0187 10.4788L61.969 17.2267C61.969 17.2511 61.9593 17.2745 61.942 17.2918C61.9247 17.3091 61.9013 17.3188 61.8768 17.3188C61.8524 17.3188 61.829 17.3091 61.8117 17.2918C61.7944 17.2745 61.7847 17.2511 61.7847 17.2267L59.735 10.4788C59.7235 10.4327 59.689 10.4212 59.6429 10.4212H55.8314C55.7853 10.4212 55.7393 10.4673 55.7393 10.5018V27.7285C55.7393 27.7745 55.7853 27.8206 55.8314 27.8206H58.3302C58.3762 27.8206 58.4223 27.7745 58.4223 27.7285V14.6242C58.4223 14.5206 58.572 14.5091 58.595 14.6012L60.6677 21.3952L60.8174 21.8558C60.8174 21.9133 60.852 21.9248 60.898 21.9248H62.8211C62.8671 21.9248 62.8902 21.8903 62.9017 21.8673L63.0514 21.3836L65.1241 14.5897C65.1471 14.4976 65.2968 14.5206 65.2968 14.6242V27.717C65.2968 27.763 65.3429 27.8091 65.389 27.8091H67.8877C67.9338 27.8091 67.9799 27.763 67.9799 27.717V10.5018C67.9799 10.4673 67.9338 10.4212 67.8877 10.4212H66.4253V10.4212ZM136.645 10.4212C136.626 10.4213 136.607 10.4268 136.591 10.437C136.574 10.4471 136.561 10.4616 136.553 10.4788L134.503 17.2267C134.503 17.2511 134.493 17.2745 134.476 17.2918C134.459 17.3091 134.435 17.3188 134.411 17.3188C134.386 17.3188 134.363 17.3091 134.346 17.2918C134.328 17.2745 134.319 17.2511 134.319 17.2267L132.269 10.4788C132.269 10.4327 132.234 10.4212 132.188 10.4212H128.388C128.342 10.4212 128.296 10.4673 128.296 10.5018V27.7285C128.296 27.7745 128.342 27.8206 128.388 27.8206H130.887C130.922 27.8206 130.968 27.7745 130.968 27.7285V14.6242C130.968 14.5206 131.117 14.5091 131.152 14.6012L133.225 21.3952L133.363 21.8558C133.386 21.9133 133.409 21.9248 133.455 21.9248H135.367C135.385 21.9236 135.404 21.9176 135.42 21.9076C135.436 21.8976 135.449 21.8837 135.459 21.8673L135.608 21.3836L137.681 14.5897C137.704 14.4976 137.854 14.5206 137.854 14.6242V27.717C137.854 27.763 137.9 27.8091 137.946 27.8091H140.445C140.491 27.8091 140.537 27.763 140.537 27.717V10.5018C140.537 10.4673 140.491 10.4212 140.445 10.4212H136.645V10.4212ZM104.414 10.4212H92.6108C92.5762 10.4212 92.5302 10.4673 92.5302 10.5018V12.6667C92.5302 12.7127 92.5762 12.7588 92.6108 12.7588H97.1823V27.7285C97.1823 27.7861 97.2283 27.8321 97.2629 27.8321H99.7617C99.8077 27.8321 99.8538 27.7861 99.8538 27.74V12.7473H104.414C104.46 12.7473 104.506 12.7012 104.506 12.6552V10.5018C104.506 10.4673 104.483 10.4212 104.414 10.4212V10.4212ZM119.153 27.8206H121.433C121.491 27.8206 121.537 27.7515 121.514 27.7055L116.816 10.4212C116.816 10.3752 116.781 10.3521 116.735 10.3521H113.453C113.435 10.3553 113.418 10.3634 113.403 10.3756C113.389 10.3877 113.379 10.4035 113.373 10.4212L108.674 27.6939C108.651 27.7515 108.697 27.8091 108.755 27.8091H111.035C111.081 27.8091 111.104 27.7861 111.127 27.7515L112.486 22.7309C112.497 22.6848 112.532 22.6733 112.578 22.6733H117.599C117.645 22.6733 117.679 22.6964 117.691 22.7309L119.05 27.7515C119.073 27.7861 119.119 27.8206 119.142 27.8206H119.153ZM113.188 20.2091L115.008 13.4727C115.008 13.4483 115.017 13.4249 115.035 13.4076C115.052 13.3903 115.075 13.3806 115.1 13.3806C115.124 13.3806 115.148 13.3903 115.165 13.4076C115.182 13.4249 115.192 13.4483 115.192 13.4727L117.011 20.2091C117.034 20.2667 116.988 20.3242 116.931 20.3242H113.28C113.211 20.3242 113.165 20.2667 113.188 20.2091ZM157.925 27.8206H160.205C160.262 27.8206 160.308 27.7515 160.297 27.7055L155.599 10.4097C155.576 10.3636 155.553 10.3406 155.507 10.3406H152.248C152.227 10.3417 152.208 10.3489 152.191 10.3612C152.175 10.3735 152.162 10.3904 152.156 10.4097L147.457 27.6824C147.446 27.74 147.492 27.7976 147.55 27.7976H149.818C149.864 27.7976 149.899 27.7745 149.91 27.74L151.269 22.7194C151.292 22.6733 151.315 22.6618 151.361 22.6618H156.393C156.428 22.6618 156.462 22.6848 156.474 22.7194L157.844 27.74C157.844 27.7745 157.89 27.8091 157.925 27.8091V27.8206ZM151.96 20.2091L153.791 13.4727C153.797 13.4551 153.809 13.4399 153.825 13.4292C153.84 13.4184 153.858 13.4127 153.877 13.4127C153.896 13.4127 153.914 13.4184 153.93 13.4292C153.945 13.4399 153.957 13.4551 153.964 13.4727L155.794 20.2091C155.794 20.2667 155.76 20.3242 155.702 20.3242H152.052C151.994 20.3242 151.937 20.2667 151.96 20.2091ZM78.1247 25.2642V19.9212C78.1247 19.8752 78.1593 19.8291 78.2053 19.8291H84.8611C84.9071 19.8291 84.9532 19.783 84.9532 19.7485V17.5952C84.9507 17.5716 84.9402 17.5496 84.9234 17.5328C84.9067 17.516 84.8847 17.5055 84.8611 17.503H78.2168C78.1708 17.503 78.1362 17.457 78.1362 17.4109V12.8509C78.1362 12.8048 78.1708 12.7588 78.2168 12.7588H85.7938C85.8399 12.7588 85.8859 12.7127 85.8859 12.6667V10.5248C85.8834 10.5013 85.8729 10.4793 85.8562 10.4625C85.8394 10.4457 85.8174 10.4352 85.7938 10.4327H75.5453C75.5217 10.4352 75.4997 10.4457 75.483 10.4625C75.4662 10.4793 75.4557 10.5013 75.4532 10.5248V27.7285C75.4532 27.7745 75.4993 27.8206 75.5453 27.8206H86.1047C86.1508 27.8206 86.1968 27.7745 86.1968 27.7285V25.4485C86.1943 25.4249 86.1838 25.4029 86.1671 25.3861C86.1503 25.3694 86.1283 25.3589 86.1047 25.3564H78.2053C78.1593 25.3448 78.1362 25.3103 78.1362 25.2527L78.1247 25.2642ZM197.721 27.6709L189.085 18.7582C189.072 18.7418 189.065 18.7215 189.065 18.7006C189.065 18.6797 189.072 18.6594 189.085 18.643L196.857 10.5824C196.877 10.5733 196.893 10.5566 196.9 10.5361C196.908 10.5156 196.907 10.4929 196.898 10.473C196.889 10.4532 196.872 10.4378 196.851 10.4302C196.831 10.4227 196.808 10.4236 196.788 10.4327H193.61C193.576 10.4327 193.564 10.4442 193.553 10.4673L186.954 17.2958C186.942 17.3061 186.927 17.313 186.911 17.3156C186.894 17.3182 186.878 17.3165 186.863 17.3106C186.848 17.3048 186.834 17.295 186.824 17.2823C186.814 17.2695 186.807 17.2543 186.805 17.2382V10.5248C186.802 10.5013 186.792 10.4793 186.775 10.4625C186.758 10.4457 186.736 10.4352 186.713 10.4327H184.214C184.19 10.4352 184.168 10.4457 184.151 10.4625C184.135 10.4793 184.124 10.5013 184.122 10.5248V27.74C184.122 27.7861 184.168 27.8321 184.214 27.8321H186.713C186.759 27.8321 186.805 27.7861 186.805 27.74V20.163C186.805 20.0824 186.908 20.0479 186.954 20.1055L194.439 27.7976C194.451 27.8128 194.467 27.8247 194.485 27.8321H197.675C197.733 27.8206 197.79 27.717 197.721 27.6709V27.6709Z" fill="#161616"/>
<path d="M38.6739 1.15152L23.543 12.3442L26.3642 5.74606L38.6739 1.15152Z" fill="#E17726" stroke="#E17726" stroke-width="0.30303" stroke-linecap="round" stroke-linejoin="round"/>
<path d="M3.78274 1.15152L18.7755 12.4364L16.0924 5.75758L3.78274 1.15152ZM33.227 27.0952L29.1967 33.2442L37.8215 35.6164L40.2858 27.2333L33.227 27.0952V27.0952ZM2.18213 27.2333L4.63486 35.6164L13.2367 33.2442L9.2294 27.0952L2.18213 27.2333V27.2333Z" fill="#E27625" stroke="#E27625" stroke-width="0.30303" stroke-linecap="round" stroke-linejoin="round"/>
<path d="M12.776 16.7085L10.3809 20.3242L18.9021 20.7158L18.6257 11.5382L12.776 16.72V16.7085ZM29.6803 16.72L23.7384 11.423L23.5427 20.7158L32.0639 20.3242L29.6803 16.72V16.72ZM13.2366 33.2442L18.4069 30.757L13.9621 27.3024L13.2366 33.2442ZM24.0609 30.7455L29.1966 33.2442L28.5057 27.2909L24.0609 30.7455Z" fill="#E27625" stroke="#E27625" stroke-width="0.30303" stroke-linecap="round" stroke-linejoin="round"/>
<path d="M29.1968 33.2442L24.0611 30.757L24.4756 34.0964L24.4295 35.5127L29.1968 33.2442ZM13.2368 33.2442L18.0271 35.5127L17.9926 34.0964L18.4071 30.757L13.2368 33.2442Z" fill="#D5BFB2" stroke="#D5BFB2" stroke-width="0.30303" stroke-linecap="round" stroke-linejoin="round"/>
<path d="M18.1078 25.08L13.8472 23.8364L16.8641 22.4545L18.1193 25.08H18.1078ZM24.3375 25.08L25.6041 22.443L28.6326 23.8248L24.3375 25.0915V25.08Z" fill="#233447" stroke="#233447" stroke-width="0.30303" stroke-linecap="round" stroke-linejoin="round"/>
<path d="M13.2368 33.2442L13.9852 27.0952L9.22949 27.2333L13.2368 33.2442ZM28.4713 27.0952L29.1968 33.2442L33.2271 27.2333L28.4713 27.0952ZM32.0756 20.3242L23.5543 20.7158L24.3374 25.0915L25.604 22.443L28.6325 23.8248L32.0756 20.3242V20.3242ZM13.8471 23.8364L16.864 22.4545L18.1192 25.08L18.9137 20.7042L10.3925 20.3242L13.8471 23.8364V23.8364Z" fill="#CC6228" stroke="#CC6228" stroke-width="0.30303" stroke-linecap="round" stroke-linejoin="round"/>
<path d="M10.3926 20.3242L13.9623 27.2909L13.8471 23.8364L10.3926 20.3242ZM28.6326 23.8364L28.4944 27.2909L32.0641 20.3242L28.6326 23.8364ZM18.9138 20.7158L18.1077 25.0915L19.1211 30.2503L19.3514 23.4448L18.9138 20.7158ZM23.5429 20.7158L23.1283 23.4333L23.3356 30.2503L24.3374 25.08L23.5429 20.7042V20.7158Z" fill="#E27525" stroke="#E27525" stroke-width="0.30303" stroke-linecap="round" stroke-linejoin="round"/>
<path d="M24.3373 25.08L23.3354 30.2503L24.0609 30.757L28.4942 27.3024L28.6324 23.8364L24.3373 25.08ZM13.847 23.8364L13.9621 27.2909L18.407 30.7455L19.1209 30.2503L18.1191 25.08L13.8354 23.8364H13.847Z" fill="#F5841F" stroke="#F5841F" stroke-width="0.30303" stroke-linecap="round" stroke-linejoin="round"/>
<path d="M24.4411 35.5127L24.4756 34.0964L24.0841 33.7739H18.3726L17.9926 34.0964L18.0271 35.5127L13.2368 33.2442L14.918 34.6261L18.315 36.9636H24.1301L27.5386 34.6145L29.1968 33.2442L24.4295 35.5127H24.4411Z" fill="#C0AC9D" stroke="#C0AC9D" stroke-width="0.30303" stroke-linecap="round" stroke-linejoin="round"/>
<path d="M24.0607 30.7455L23.3352 30.2503H19.1207L18.4067 30.757L17.9922 34.0964L18.3722 33.7739H24.0837L24.4752 34.0964L24.0607 30.757V30.7455Z" fill="#161616" stroke="#161616" stroke-width="0.30303" stroke-linecap="round" stroke-linejoin="round"/>
<path d="M39.3184 13.0697L40.585 6.90909L38.6735 1.15152L24.0493 11.9758L29.6802 16.7085L37.6256 19.023L39.3759 16.9848L38.6159 16.4321L39.825 15.3267L38.9038 14.6127L40.1129 13.6915L39.3069 13.0697H39.3184ZM1.87109 6.89758L3.16079 13.0697L2.3317 13.68L3.56382 14.6012L2.64261 15.3267L3.84018 16.4321L3.08018 16.9848L4.83049 19.023L12.7759 16.72L18.4069 11.9642L3.78261 1.15152L1.87109 6.89758Z" fill="#763E1A" stroke="#763E1A" stroke-width="0.30303" stroke-linecap="round" stroke-linejoin="round"/>
<path d="M37.6258 19.023L29.6803 16.72L32.0755 20.3242L28.5058 27.2909L33.227 27.2333H40.2858L37.6258 19.023ZM12.7761 16.7085L4.83061 19.023L2.18213 27.2333H9.24092L13.9621 27.2909L10.3924 20.3242L12.7876 16.7085H12.7761ZM23.5427 20.7158L24.0609 11.9642L26.3639 5.74606H16.0924L18.3955 11.9642L18.9136 20.7158L19.1094 23.4564V30.2503H23.3355L23.3585 23.4564L23.5427 20.7158Z" fill="#F5841F" stroke="#F5841F" stroke-width="0.30303" stroke-linecap="round" stroke-linejoin="round"/>
</svg>
