<svg width="403" height="94" viewBox="0 0 403 94" fill="none" xmlns="http://www.w3.org/2000/svg">
<g clip-path="url(#clip0_46_486)">
<path d="M47.7869 94C73.7442 94 94.7869 72.9574 94.7869 47C94.7869 21.0426 73.7442 0 47.7869 0C21.8295 0 0.786865 21.0426 0.786865 47C0.786865 72.9574 21.8295 94 47.7869 94Z" fill="#FF8C00"/>
<path d="M47.7869 13.2271C33.8211 13.2271 22.4069 24.5743 22.4069 38.6071C22.4069 41.4271 22.8769 44.18 23.7497 46.8659C24.354 48.6786 26.3683 49.6859 28.2483 49.0814C30.0611 48.4773 31.0683 46.4627 30.464 44.5829C29.7255 42.5014 29.3897 40.2857 29.4569 38.07C29.7255 28.6029 37.3797 20.8143 46.8469 20.3443C57.3882 19.8071 66.1169 28.2 66.1169 38.6071C66.1169 48.3427 58.4628 56.3327 48.8609 56.87C48.8609 56.87 45.3026 57.0714 43.5569 57.34C42.684 57.4741 42.0126 57.6086 41.5426 57.6759C41.3411 57.7427 41.1397 57.5414 41.2069 57.34L41.8111 54.3859L45.1011 39.2114C45.504 37.3314 44.2955 35.4514 42.4155 35.0485C40.5355 34.6457 38.6555 35.8543 38.2526 37.7343C38.2526 37.7343 30.3297 74.6627 30.2626 75.0659C29.8597 76.9459 31.0683 78.8259 32.9483 79.2286C34.8283 79.6314 36.7083 78.4227 37.1111 76.5427C37.1783 76.14 38.2526 71.2386 38.2526 71.2386C39.0583 67.4786 42.1469 64.7259 45.7726 64.2559C46.5783 64.1214 49.7341 63.92 49.7341 63.92C62.8269 62.9127 73.1669 51.9686 73.1669 38.6071C73.1669 24.5743 61.7528 13.2271 47.7869 13.2271ZM49.5996 71.6414C47.3169 71.1714 45.034 72.5814 44.564 74.9314C44.094 77.2141 45.504 79.4973 47.8541 79.9673C50.1369 80.4373 52.4196 79.0273 52.8896 76.6773C53.3596 74.3273 51.9496 72.1114 49.5996 71.6414Z" fill="white"/>
<path d="M133.802 31.2412C136.486 31.2412 138.816 31.6835 140.792 32.5682C142.797 33.4529 144.33 34.721 145.392 36.3725C146.454 38.0239 146.985 39.985 146.985 42.2558C146.985 44.497 146.454 46.4581 145.392 48.1391C144.33 49.7905 142.797 51.0586 140.792 51.9433C138.816 52.828 136.486 53.2704 133.802 53.2704H126.813V62.2059H121.063V31.2412H133.802ZM133.537 48.4045C136.044 48.4045 137.946 47.8737 139.243 46.812C140.541 45.7504 141.19 44.2316 141.19 42.2558C141.19 40.2799 140.541 38.7612 139.243 37.6995C137.946 36.6379 136.044 36.1071 133.537 36.1071H126.813V48.4045H133.537ZM162.726 62.5155C160.338 62.5155 158.185 61.9995 156.268 60.9673C154.351 59.9351 152.847 58.5049 151.756 56.6765C150.694 54.8186 150.163 52.7248 150.163 50.3951C150.163 48.0653 150.694 45.9863 151.756 44.1579C152.847 42.3295 154.351 40.8992 156.268 39.8671C158.185 38.8349 160.338 38.3188 162.726 38.3188C165.144 38.3188 167.312 38.8349 169.229 39.8671C171.146 40.8992 172.635 42.3295 173.697 44.1579C174.788 45.9863 175.333 48.0653 175.333 50.3951C175.333 52.7248 174.788 54.8186 173.697 56.6765C172.635 58.5049 171.146 59.9351 169.229 60.9673C167.312 61.9995 165.144 62.5155 162.726 62.5155ZM162.726 57.7824C164.761 57.7824 166.442 57.1041 167.769 55.7475C169.096 54.391 169.76 52.6068 169.76 50.3951C169.76 48.1833 169.096 46.3991 167.769 45.0426C166.442 43.686 164.761 43.0078 162.726 43.0078C160.691 43.0078 159.011 43.686 157.683 45.0426C156.386 46.3991 155.737 48.1833 155.737 50.3951C155.737 52.6068 156.386 54.391 157.683 55.7475C159.011 57.1041 160.691 57.7824 162.726 57.7824ZM180.621 29.3833H186.15V62.2059H180.621V29.3833ZM203.051 52.076L198.937 55.9687V62.2059H193.408V29.3833H198.937V49.2007L210.394 38.5842H217.029L207.165 48.4929L217.958 62.2059H211.234L203.051 52.076ZM230.122 38.3188C233.602 38.3188 236.256 39.1593 238.084 40.8402C239.942 42.4917 240.871 44.9984 240.871 48.3602V62.2059H235.651V59.3306C234.973 60.3627 234 61.159 232.732 61.7193C231.493 62.2501 229.989 62.5155 228.22 62.5155C226.45 62.5155 224.902 62.2206 223.575 61.6308C222.248 61.0115 221.216 60.1711 220.479 59.1094C219.771 58.0183 219.417 56.7944 219.417 55.4379C219.417 53.3146 220.199 51.6189 221.762 50.3508C223.354 49.0533 225.846 48.4045 229.237 48.4045H235.342V48.0506C235.342 46.3991 234.84 45.1311 233.838 44.2464C232.865 43.3617 231.405 42.9193 229.458 42.9193C228.131 42.9193 226.819 43.1257 225.521 43.5386C224.253 43.9515 223.177 44.5265 222.292 45.2638L220.125 41.2384C221.363 40.2947 222.853 39.5722 224.593 39.0708C226.332 38.5695 228.176 38.3188 230.122 38.3188ZM229.37 58.4901C230.756 58.4901 231.98 58.1805 233.042 57.5612C234.133 56.9124 234.899 55.9982 235.342 54.8186V52.076H229.635C226.45 52.076 224.858 53.1229 224.858 55.2167C224.858 56.2194 225.256 57.0156 226.052 57.6054C226.849 58.1952 227.954 58.4901 229.37 58.4901ZM271.318 29.3833V62.2059H266.01V59.1537C265.096 60.2743 263.961 61.1148 262.604 61.6751C261.277 62.2354 259.802 62.5155 258.181 62.5155C255.91 62.5155 253.86 62.0142 252.032 61.0115C250.233 60.0089 248.817 58.5933 247.785 56.7649C246.753 54.9071 246.237 52.7838 246.237 50.3951C246.237 48.0064 246.753 45.8978 247.785 44.0694C248.817 42.241 250.233 40.8255 252.032 39.8228C253.86 38.8202 255.91 38.3188 258.181 38.3188C259.743 38.3188 261.174 38.5842 262.471 39.1151C263.769 39.6459 264.875 40.4421 265.789 41.5038V29.3833H271.318ZM258.844 57.7824C260.171 57.7824 261.365 57.4875 262.427 56.8977C263.489 56.2784 264.329 55.4084 264.949 54.2878C265.568 53.1671 265.877 51.8696 265.877 50.3951C265.877 48.9206 265.568 47.623 264.949 46.5024C264.329 45.3817 263.489 44.5265 262.427 43.9367C261.365 43.3174 260.171 43.0078 258.844 43.0078C257.517 43.0078 256.323 43.3174 255.261 43.9367C254.199 44.5265 253.359 45.3817 252.74 46.5024C252.12 47.623 251.811 48.9206 251.811 50.3951C251.811 51.8696 252.12 53.1671 252.74 54.2878C253.359 55.4084 254.199 56.2784 255.261 56.8977C256.323 57.4875 257.517 57.7824 258.844 57.7824ZM289.169 62.5155C286.78 62.5155 284.627 61.9995 282.71 60.9673C280.793 59.9351 279.29 58.5049 278.198 56.6765C277.137 54.8186 276.606 52.7248 276.606 50.3951C276.606 48.0653 277.137 45.9863 278.198 44.1579C279.29 42.3295 280.793 40.8992 282.71 39.8671C284.627 38.8349 286.78 38.3188 289.169 38.3188C291.587 38.3188 293.754 38.8349 295.671 39.8671C297.588 40.8992 299.077 42.3295 300.139 44.1579C301.23 45.9863 301.776 48.0653 301.776 50.3951C301.776 52.7248 301.23 54.8186 300.139 56.6765C299.077 58.5049 297.588 59.9351 295.671 60.9673C293.754 61.9995 291.587 62.5155 289.169 62.5155ZM289.169 57.7824C291.204 57.7824 292.884 57.1041 294.212 55.7475C295.539 54.391 296.202 52.6068 296.202 50.3951C296.202 48.1833 295.539 46.3991 294.212 45.0426C292.884 43.686 291.204 43.0078 289.169 43.0078C287.134 43.0078 285.453 43.686 284.126 45.0426C282.828 46.3991 282.18 48.1833 282.18 50.3951C282.18 52.6068 282.828 54.391 284.126 55.7475C285.453 57.1041 287.134 57.7824 289.169 57.7824ZM321.263 60.9231C320.614 61.4539 319.818 61.852 318.874 62.1174C317.96 62.3828 316.987 62.5155 315.955 62.5155C313.359 62.5155 311.354 61.8373 309.938 60.4807C308.523 59.1242 307.815 57.1483 307.815 54.5532V43.1847H303.923V38.7612H307.815V33.3645H313.345V38.7612H319.67V43.1847H313.345V54.4205C313.345 55.5706 313.625 56.4553 314.185 57.0746C314.745 57.6644 315.556 57.9593 316.618 57.9593C317.857 57.9593 318.889 57.6349 319.715 56.9861L321.263 60.9231ZM333.597 45.5734C333.597 46.9005 333.39 47.9179 332.977 48.6257C332.564 49.3039 331.901 49.7905 330.987 50.0854C331.901 50.3803 332.564 50.8817 332.977 51.5894C333.39 52.2677 333.597 53.2704 333.597 54.5974V63.0021C333.597 64.0933 333.862 64.919 334.393 65.4793C334.953 66.0691 335.779 66.364 336.87 66.364H337.799V70.7875H335.587C333.11 70.7875 331.237 70.1682 329.969 68.9296C328.701 67.7206 328.067 65.9364 328.067 63.5772V54.4647C328.067 53.0492 327.404 52.3414 326.077 52.3414H324.617V47.8294H326.077C327.404 47.8294 328.067 47.1217 328.067 45.7061V36.5937C328.067 34.2344 328.701 32.4503 329.969 31.2412C331.237 30.0026 333.11 29.3833 335.587 29.3833H337.799V33.8068H336.87C335.779 33.8068 334.953 34.1017 334.393 34.6915C333.862 35.2519 333.597 36.0776 333.597 37.1687V45.5734ZM343.953 62.5155C342.95 62.5155 342.095 62.1764 341.387 61.4981C340.679 60.7904 340.325 59.9057 340.325 58.844C340.325 57.7529 340.665 56.8682 341.343 56.1899C342.051 55.5116 342.921 55.1725 343.953 55.1725C344.985 55.1725 345.84 55.5116 346.518 56.1899C347.226 56.8682 347.58 57.7529 347.58 58.844C347.58 59.9057 347.226 60.7904 346.518 61.4981C345.811 62.1764 344.955 62.5155 343.953 62.5155ZM350.982 71.0972C348.652 71.0972 346.883 70.6401 345.674 69.7259L347.266 65.612C348.092 66.2313 349.168 66.5409 350.495 66.5409C351.528 66.5409 352.309 66.2166 352.84 65.5678C353.4 64.9485 353.68 64.0195 353.68 62.7809V38.5842H359.21V62.6482C359.21 65.2729 358.487 67.3372 357.042 68.8412C355.597 70.3452 353.577 71.0972 350.982 71.0972ZM356.423 34.6915C355.42 34.6915 354.58 34.3819 353.902 33.7626C353.223 33.1138 352.884 32.3176 352.884 31.3739C352.884 30.4302 353.223 29.6487 353.902 29.0294C354.58 28.3806 355.42 28.0562 356.423 28.0562C357.426 28.0562 358.266 28.3659 358.944 28.9852C359.623 29.575 359.962 30.327 359.962 31.2412C359.962 32.2144 359.623 33.0401 358.944 33.7184C358.296 34.3671 357.455 34.6915 356.423 34.6915ZM373.76 62.5155C371.843 62.5155 369.97 62.2649 368.142 61.7635C366.314 61.2622 364.854 60.6282 363.763 59.8614L365.886 55.6591C366.948 56.3668 368.216 56.9419 369.69 57.3842C371.194 57.7971 372.669 58.0035 374.114 58.0035C377.417 58.0035 379.068 57.1336 379.068 55.3937C379.068 54.5679 378.641 53.9929 377.785 53.6685C376.96 53.3441 375.618 53.0344 373.76 52.7395C371.814 52.4446 370.221 52.1055 368.983 51.7221C367.773 51.3388 366.712 50.6752 365.798 49.7315C364.913 48.7584 364.471 47.4166 364.471 45.7061C364.471 43.4649 365.399 41.6807 367.257 40.3537C369.145 38.9971 371.681 38.3188 374.866 38.3188C376.488 38.3188 378.11 38.5105 379.732 38.8939C381.354 39.2478 382.681 39.7344 383.713 40.3537L381.59 44.556C379.584 43.3764 377.328 42.7866 374.822 42.7866C373.2 42.7866 371.961 43.0373 371.106 43.5386C370.28 44.0104 369.867 44.6445 369.867 45.4407C369.867 46.3254 370.31 46.9595 371.194 47.3428C372.108 47.6967 373.509 48.0359 375.397 48.3602C377.284 48.6551 378.832 48.9943 380.041 49.3777C381.25 49.761 382.283 50.4098 383.138 51.324C384.023 52.2382 384.465 53.5358 384.465 55.2167C384.465 57.4285 383.506 59.1979 381.59 60.5249C379.673 61.852 377.063 62.5155 373.76 62.5155ZM399.578 47.8294V52.3414H398.074C397.454 52.3414 396.968 52.5184 396.614 52.8722C396.29 53.2261 396.127 53.7569 396.127 54.4647V63.5772C396.127 65.9364 395.479 67.7206 394.181 68.9296C392.913 70.1682 391.04 70.7875 388.563 70.7875H386.351V66.364H387.28C388.401 66.364 389.227 66.0691 389.757 65.4793C390.318 64.919 390.598 64.0933 390.598 63.0021V54.5974C390.598 53.2409 390.79 52.2235 391.173 51.5452C391.586 50.8669 392.249 50.3803 393.164 50.0854C392.249 49.7905 391.586 49.3039 391.173 48.6257C390.79 47.9474 390.598 46.93 390.598 45.5734V37.1687C390.598 36.0776 390.318 35.2519 389.757 34.6915C389.227 34.1017 388.401 33.8068 387.28 33.8068H386.351V29.3833H388.563C391.04 29.3833 392.913 30.0026 394.181 31.2412C395.479 32.4503 396.127 34.2344 396.127 36.5937V45.7061C396.127 46.4139 396.29 46.9447 396.614 47.2986C396.968 47.6525 397.454 47.8294 398.074 47.8294H399.578Z" fill="black"/>
</g>
<defs>
<clipPath id="clip0_46_486">
<rect width="401.343" height="94" fill="white" transform="translate(0.786865)"/>
</clipPath>
</defs>
</svg>
