<svg width="95" height="94" viewBox="0 0 95 94" fill="none" xmlns="http://www.w3.org/2000/svg">
<path d="M47.7869 94C73.7442 94 94.7869 72.9574 94.7869 47C94.7869 21.0426 73.7442 0 47.7869 0C21.8295 0 0.786865 21.0426 0.786865 47C0.786865 72.9574 21.8295 94 47.7869 94Z" fill="#FF8C00"/>
<path d="M47.7869 13.2271C33.8211 13.2271 22.4069 24.5743 22.4069 38.6071C22.4069 41.4271 22.8769 44.18 23.7497 46.8659C24.354 48.6786 26.3683 49.6859 28.2483 49.0814C30.0611 48.4773 31.0683 46.4627 30.464 44.5829C29.7255 42.5014 29.3897 40.2857 29.4569 38.07C29.7255 28.6029 37.3797 20.8143 46.8469 20.3443C57.3882 19.8071 66.1169 28.2 66.1169 38.6071C66.1169 48.3427 58.4628 56.3327 48.8609 56.87C48.8609 56.87 45.3026 57.0714 43.5569 57.34C42.684 57.4741 42.0126 57.6086 41.5426 57.6759C41.3411 57.7427 41.1397 57.5414 41.2069 57.34L41.8111 54.3859L45.1011 39.2114C45.504 37.3314 44.2955 35.4514 42.4155 35.0485C40.5355 34.6457 38.6555 35.8543 38.2526 37.7343C38.2526 37.7343 30.3297 74.6627 30.2626 75.0659C29.8597 76.9459 31.0683 78.8259 32.9483 79.2286C34.8283 79.6314 36.7083 78.4227 37.1111 76.5427C37.1783 76.14 38.2526 71.2386 38.2526 71.2386C39.0583 67.4786 42.1469 64.7259 45.7726 64.2559C46.5783 64.1214 49.7341 63.92 49.7341 63.92C62.8269 62.9127 73.1669 51.9686 73.1669 38.6071C73.1669 24.5743 61.7528 13.2271 47.7869 13.2271ZM49.5996 71.6414C47.3169 71.1714 45.034 72.5814 44.564 74.9314C44.094 77.2141 45.504 79.4973 47.8541 79.9673C50.1369 80.4373 52.4196 79.0273 52.8896 76.6773C53.3596 74.3273 51.9496 72.1114 49.5996 71.6414Z" fill="white"/>
</svg>
