<svg width="64" height="64" viewBox="0 0 64 64" fill="none" xmlns="http://www.w3.org/2000/svg">
<path d="M32 58.6667C46.7276 58.6667 58.6666 46.7276 58.6666 32C58.6666 17.2724 46.7276 5.33334 32 5.33334C17.2724 5.33334 5.33331 17.2724 5.33331 32C5.33331 46.7276 17.2724 58.6667 32 58.6667Z" fill="#57AE5B"/>
<path d="M26.6667 38.9067L43.4667 22.1067C43.9799 21.6732 44.6378 21.4493 45.3089 21.4799C45.98 21.5105 46.6148 21.7932 47.0864 22.2716C47.5581 22.75 47.8318 23.3888 47.8528 24.0602C47.8739 24.7317 47.6408 25.3863 47.2 25.8933L28.5333 44.56C28.0349 45.0486 27.3647 45.3223 26.6667 45.3223C25.9687 45.3223 25.2985 45.0486 24.8 44.56L16.8 36.56C16.3593 36.053 16.1261 35.3983 16.1472 34.7269C16.1682 34.0554 16.442 33.4167 16.9136 32.9383C17.3852 32.4599 18.0201 32.1772 18.6912 32.1466C19.3622 32.116 20.0202 32.3398 20.5333 32.7733L26.6667 38.9067Z" fill="white"/>
</svg>
