<svg width="38" height="38" viewBox="0 0 38 38" fill="none" xmlns="http://www.w3.org/2000/svg">
<path fill-rule="evenodd" clip-rule="evenodd" d="M29.1544 20.7447C29.5084 21.5154 30.5505 21.7875 31.1502 21.1878L32.2485 20.0895C33.3844 18.9537 35.2262 18.9537 36.3621 20.0895C37.498 21.2255 37.498 23.0672 36.3621 24.2032L27.4837 33.0815C25.3495 35.6187 22.1511 37.231 18.5761 37.231C14.8517 37.231 11.5361 35.4811 9.40651 32.7586L0.851948 24.204C-0.283982 23.0681 -0.283983 21.2265 0.851947 20.0905C1.98788 18.9546 3.82958 18.9546 4.96552 20.0905L6.04801 21.173C6.63447 21.7595 7.65257 21.4956 7.99895 20.7421C8.06739 20.5932 8.1046 20.4334 8.1046 20.2696V6.98072C8.1046 5.37428 9.40688 4.072 11.0133 4.072C12.6198 4.072 13.922 5.37428 13.922 6.98072V13.7035C13.922 14.2818 14.5144 14.6743 15.0658 14.5001C15.4148 14.3897 15.6669 14.072 15.6669 13.7061V2.90873C15.6669 1.30228 16.9691 4.21081e-07 18.5756 0C20.1821 -4.21081e-07 21.4844 1.30228 21.4844 2.90873V13.7057C21.4844 14.0718 21.7365 14.3894 22.0855 14.4997C22.6369 14.6739 23.2292 14.2815 23.2292 13.7032V6.98072C23.2292 5.37428 24.5314 4.072 26.1379 4.072C27.7444 4.072 29.0467 5.37428 29.0467 6.98072V20.2625C29.0467 20.4297 29.0847 20.5927 29.1544 20.7447Z" fill="#FD4848"/>
<path d="M27.8835 26.7604C27.8835 26.7604 23.7161 32.5779 18.5755 32.5779C13.4349 32.5779 9.26758 26.7604 9.26758 26.7604C9.26758 26.7604 13.4349 20.943 18.5755 20.943C23.7161 20.943 27.8835 26.7604 27.8835 26.7604Z" fill="#D5FF5C"/>
<path d="M22.9376 26.7604C22.9376 29.1696 20.9845 31.1227 18.5752 31.1227C16.166 31.1227 14.2129 29.1696 14.2129 26.7604C14.2129 24.3511 16.166 22.398 18.5752 22.398C20.9845 22.398 22.9376 24.3511 22.9376 26.7604Z" stroke="#FD4848" stroke-width="0.5679"/>
<path d="M21.1922 26.7603C21.1922 28.2056 20.0205 29.3774 18.5751 29.3774C17.1297 29.3774 15.958 28.2056 15.958 26.7603C15.958 25.3149 17.1297 24.1432 18.5751 24.1432C20.0205 24.1432 21.1922 25.3149 21.1922 26.7603Z" stroke="#FD4848" stroke-width="0.5679"/>
<path d="M24.6829 26.7605C24.6829 30.1336 21.9485 32.868 18.5753 32.868C15.2022 32.868 12.4678 30.1336 12.4678 26.7605C12.4678 23.3873 15.2022 20.6529 18.5753 20.6529C21.9485 20.6529 24.6829 23.3873 24.6829 26.7605Z" stroke="#FD4848" stroke-width="0.5679"/>
<path d="M26.4283 26.7606C26.4283 31.0975 22.9124 34.6134 18.5754 34.6134C14.2385 34.6134 10.7227 31.0975 10.7227 26.7606C10.7227 22.4236 14.2385 18.9077 18.5754 18.9077C22.9124 18.9077 26.4283 22.4236 26.4283 26.7606Z" stroke="#FD4848" stroke-width="0.5679"/>
<path d="M19.4469 26.7602C19.4469 27.2417 19.0565 27.632 18.5751 27.632C18.0935 27.632 17.7031 27.2417 17.7031 26.7602C17.7031 26.2787 18.0935 25.8883 18.5751 25.8883C19.0565 25.8883 19.4469 26.2787 19.4469 26.7602Z" fill="#162BEB" stroke="#FD4848" stroke-width="0.5679"/>
<path d="M18.5746 27.9237C19.2172 27.9237 19.7381 27.4028 19.7381 26.7602C19.7381 26.1176 19.2172 25.5967 18.5746 25.5967C17.932 25.5967 17.4111 26.1176 17.4111 26.7602C17.4111 27.4028 17.932 27.9237 18.5746 27.9237Z" fill="#FD4848"/>
<path d="M9.68654 26.8312C9.66673 26.8057 9.64849 26.7822 9.63184 26.7604C9.64849 26.7387 9.66673 26.7152 9.68654 26.6897C9.80787 26.5341 9.98764 26.3107 10.2196 26.0421C10.6839 25.5044 11.3554 24.7881 12.1842 24.0725C13.851 22.6334 16.1106 21.2346 18.5754 21.2346C21.04 21.2346 23.2997 22.6334 24.9665 24.0725C25.7953 24.7881 26.4668 25.5044 26.9312 26.0421C27.1631 26.3107 27.3428 26.534 27.4642 26.6897C27.484 26.7152 27.5022 26.7387 27.5189 26.7604C27.5022 26.7822 27.484 26.8057 27.4642 26.8312C27.3428 26.9867 27.1631 27.2102 26.9312 27.4788C26.4668 28.0163 25.7953 28.7328 24.9665 29.4484C23.2997 30.8875 21.04 32.2863 18.5754 32.2863C16.1106 32.2863 13.851 30.8875 12.1843 29.4484C11.3554 28.7328 10.6839 28.0163 10.2196 27.4788C9.98764 27.2102 9.80788 26.9867 9.68654 26.8312Z" stroke="#D5FF5C" stroke-width="0.5679"/>
</svg>
