<svg width="189" height="38" viewBox="0 0 189 38" fill="none" xmlns="http://www.w3.org/2000/svg">
<path fill-rule="evenodd" clip-rule="evenodd" d="M29.1559 20.7454C29.5099 21.5161 30.552 21.7883 31.1517 21.1886L32.25 20.0903C33.3859 18.9544 35.2276 18.9544 36.3635 20.0903C37.4994 21.2263 37.4994 23.068 36.3635 24.2039L27.4852 33.0823C25.3509 35.6195 22.1526 37.2318 18.5776 37.2318C14.8532 37.2318 11.5375 35.4818 9.40798 32.7594L0.853413 24.2048C-0.282517 23.0689 -0.282518 21.2272 0.853412 20.0912C1.98934 18.9553 3.83105 18.9553 4.96698 20.0912L6.04948 21.1737C6.63593 21.7602 7.65403 21.4964 8.00042 20.7429C8.06886 20.5939 8.10607 20.4341 8.10607 20.2703V6.98147C8.10607 5.37503 9.40835 4.07275 11.0148 4.07275C12.6212 4.07275 13.9235 5.37503 13.9235 6.98147V13.7042C13.9235 14.2826 14.5159 14.6751 15.0673 14.5008C15.4163 14.3905 15.6683 14.0727 15.6683 13.7068V2.90948C15.6683 1.30303 16.9706 0.000750009 18.5771 0.000749588C20.1835 0.000749167 21.4858 1.30303 21.4858 2.90948V13.7065C21.4858 14.0725 21.738 14.3902 22.0869 14.5005C22.6383 14.6747 23.2306 14.2823 23.2306 13.7039V6.98147C23.2306 5.37503 24.5329 4.07275 26.1394 4.07275C27.7459 4.07275 29.0481 5.37503 29.0481 6.98147V20.2632C29.0481 20.4304 29.0861 20.5934 29.1559 20.7454Z" fill="#FD4848"/>
<path d="M27.8854 26.7611C27.8854 26.7611 23.7181 32.5786 18.5775 32.5786C13.4368 32.5786 9.26953 26.7611 9.26953 26.7611C9.26953 26.7611 13.4368 20.9437 18.5775 20.9437C23.7181 20.9437 27.8854 26.7611 27.8854 26.7611Z" fill="#D5FF5C"/>
<path d="M22.9395 26.7611C22.9395 29.1703 20.9864 31.1234 18.5771 31.1234C16.1679 31.1234 14.2148 29.1703 14.2148 26.7611C14.2148 24.3518 16.1679 22.3987 18.5771 22.3987C20.9864 22.3987 22.9395 24.3518 22.9395 26.7611Z" stroke="#FD4848" stroke-width="0.5679"/>
<path d="M21.1942 26.761C21.1942 28.2064 20.0225 29.3781 18.577 29.3781C17.1317 29.3781 15.96 28.2064 15.96 26.761C15.96 25.3156 17.1317 24.144 18.577 24.144C20.0225 24.144 21.1942 25.3156 21.1942 26.761Z" stroke="#FD4848" stroke-width="0.5679"/>
<path d="M24.6849 26.7612C24.6849 30.1343 21.9504 32.8688 18.5772 32.8688C15.2042 32.8688 12.4697 30.1343 12.4697 26.7612C12.4697 23.3881 15.2042 20.6536 18.5772 20.6536C21.9504 20.6536 24.6849 23.3881 24.6849 26.7612Z" stroke="#FD4848" stroke-width="0.5679"/>
<path d="M26.4302 26.7613C26.4302 31.0983 22.9144 34.6141 18.5774 34.6141C14.2404 34.6141 10.7246 31.0983 10.7246 26.7613C10.7246 22.4243 14.2404 18.9085 18.5774 18.9085C22.9144 18.9085 26.4302 22.4243 26.4302 26.7613Z" stroke="#FD4848" stroke-width="0.5679"/>
<path d="M19.4489 26.7609C19.4489 27.2424 19.0585 27.6328 18.577 27.6328C18.0955 27.6328 17.7051 27.2424 17.7051 26.7609C17.7051 26.2795 18.0955 25.8891 18.577 25.8891C19.0585 25.8891 19.4489 26.2795 19.4489 26.7609Z" fill="#162BEB" stroke="#FD4848" stroke-width="0.5679"/>
<path d="M18.5771 27.9244C19.2196 27.9244 19.7405 27.4035 19.7405 26.7609C19.7405 26.1184 19.2196 25.5975 18.5771 25.5975C17.9345 25.5975 17.4136 26.1184 17.4136 26.7609C17.4136 27.4035 17.9345 27.9244 18.5771 27.9244Z" fill="#FD4848"/>
<path d="M9.68849 26.8319C9.66869 26.8064 9.65045 26.7829 9.63379 26.7611C9.65045 26.7395 9.66869 26.7159 9.68849 26.6905C9.80982 26.5349 9.98959 26.3114 10.2216 26.0428C10.6859 25.5052 11.3573 24.7888 12.1861 24.0732C13.8529 22.6341 16.1126 21.2353 18.5773 21.2353C21.042 21.2353 23.3017 22.6341 24.9684 24.0732C25.7972 24.7888 26.4688 25.5052 26.9331 26.0428C27.165 26.3114 27.3448 26.5348 27.4661 26.6905C27.486 26.7159 27.5041 26.7395 27.5209 26.7611C27.5041 26.7829 27.486 26.8064 27.4661 26.8319C27.3448 26.9875 27.165 27.211 26.9331 27.4795C26.4688 28.0171 25.7972 28.7335 24.9684 29.4492C23.3017 30.8882 21.042 32.2871 18.5773 32.2871C16.1126 32.2871 13.8529 30.8882 12.1862 29.4492C11.3573 28.7335 10.6859 28.0171 10.2216 27.4795C9.98959 27.211 9.80983 26.9875 9.68849 26.8319Z" stroke="#D5FF5C" stroke-width="0.5679"/>
<path d="M49.6786 31.4558H54.1233V11.3516H62.5685V7.52226H41.3701V11.3516H49.6786V31.4558Z" fill="black"/>
<path d="M59.9577 27.0794C59.9577 30.0882 62.1458 31.9687 65.4281 31.9687C68.1976 31.9687 69.9413 30.3275 70.6593 27.8999H72.1295C72.1979 30.5668 72.8476 31.4558 75.6511 31.4558H77.4291V28.1735H75.8221C74.9331 28.1735 74.7964 28.0025 74.7964 27.1477V20.2754C74.7964 16.1383 72.2321 13.9159 67.548 13.9159C62.9322 13.9159 60.0602 16.3777 59.7183 18.942L63.5134 19.9335C63.9579 18.1898 65.223 17.0957 67.548 17.0957C69.702 17.0957 70.6593 18.0188 70.6593 19.7626V20.3438C67.4112 20.6516 64.8127 21.3012 62.8638 22.3269C60.915 23.3183 59.9577 24.9253 59.9577 27.0794ZM70.6593 24.4467C70.6593 27.3529 68.8814 28.8231 66.7616 28.8231C65.1204 28.8231 64.1972 28.0367 64.1972 26.6691C64.1972 24.4808 66.5906 23.5235 70.6593 23.079V24.4467Z" fill="black"/>
<path d="M80.1489 31.4558H84.3202V7.52226H80.1489V31.4558Z" fill="black"/>
<path d="M89.2603 11.7277H93.705V7.48807H89.2603V11.7277ZM89.4311 31.4558H93.5682V14.4288H89.4311V31.4558Z" fill="black"/>
<path d="M97.1089 27.0794C97.8611 30.0882 101.075 31.9345 104.905 31.9345C109.589 31.9345 112.427 29.7804 112.427 26.4639C112.427 24.8911 111.845 23.6944 110.717 22.8739C109.589 22.0534 108.221 21.4721 106.614 21.1644L104.391 20.7541C102.34 20.3438 101.793 19.831 101.793 18.8394C101.793 17.7111 102.785 16.9247 104.597 16.9247C106.546 16.9247 107.776 18.053 108.324 19.5232L111.845 18.0188C111.059 15.9332 108.802 13.9159 104.733 13.9159C100.665 13.9159 97.8269 16.07 97.8269 19.2155C97.8269 22.4295 99.8784 23.6261 103.331 24.3441L105.589 24.7544C107.503 25.1305 108.118 25.8143 108.118 26.8742C108.118 28.0709 107.024 28.8231 105.075 28.8231C102.374 28.8231 101.28 27.3187 100.972 25.8143L97.1089 27.0794Z" fill="black"/>
<path d="M116.143 31.4558H120.314V23.0448C120.314 21.1302 120.451 19.5574 121.511 18.3266C122.023 17.7111 122.81 17.4034 123.87 17.4034C125.922 17.4034 126.947 18.6343 126.947 21.0618V31.4558H131.05V23.0448C131.05 21.096 131.153 19.5574 132.212 18.3266C132.725 17.7111 133.546 17.4034 134.605 17.4034C136.555 17.4034 137.683 18.5659 137.683 21.0618V31.4558H141.82V20.3438C141.82 16.2067 139.426 13.9159 136.145 13.9159C133.82 13.9159 131.939 15.5571 131.221 17.9163H129.751C129.169 15.3519 127.358 13.9159 125.066 13.9159C122.571 13.9159 121.101 15.5913 120.451 17.9163H118.502C119.221 16.9247 119.836 15.4203 119.836 14.4288H116.143V31.4558Z" fill="black"/>
<path d="M145.668 27.0794C145.668 30.0882 147.857 31.9687 151.138 31.9687C153.908 31.9687 155.652 30.3275 156.37 27.8999H157.841C157.909 30.5668 158.559 31.4558 161.361 31.4558H163.14V28.1735H161.533C160.644 28.1735 160.507 28.0025 160.507 27.1477V20.2754C160.507 16.1383 157.942 13.9159 153.259 13.9159C148.643 13.9159 145.771 16.3777 145.429 18.942L149.224 19.9335C149.669 18.1898 150.934 17.0957 153.259 17.0957C155.413 17.0957 156.37 18.0188 156.37 19.7626V20.3438C153.122 20.6516 150.523 21.3012 148.575 22.3269C146.626 23.3183 145.668 24.9253 145.668 27.0794ZM156.37 24.4467C156.37 27.3529 154.592 28.8231 152.473 28.8231C150.831 28.8231 149.908 28.0367 149.908 26.6691C149.908 24.4808 152.301 23.5235 156.37 23.079V24.4467Z" fill="black"/>
<path d="M165.86 31.4558H170.031V23.6603C170.031 21.6089 170.167 19.831 171.296 18.4633C171.877 17.7453 172.767 17.4034 173.929 17.4034C175.877 17.4034 177.006 18.6001 177.006 21.0618V31.4558H181.177V20.2413C181.177 16.3093 179.16 13.9159 175.33 13.9159C172.527 13.9159 170.749 16.07 169.997 18.3608H168.047C169.006 16.9589 169.689 15.4203 169.724 14.4288H165.86V31.4558Z" fill="black"/>
</svg>
