<svg width="114" height="114" viewBox="0 0 114 114" fill="none" xmlns="http://www.w3.org/2000/svg">
<rect width="114" height="114" rx="57" fill="#E6007A"/>
<g clip-path="url(#clip0_149_211)">
<path d="M56.997 33.3987C65.2579 33.3987 71.9547 29.5039 71.9547 24.6993C71.9547 19.8948 65.2579 16 56.997 16C48.7361 16 42.0393 19.8948 42.0393 24.6993C42.0393 29.5039 48.7361 33.3987 56.997 33.3987Z" fill="white"/>
<path d="M56.997 98.9467C65.2579 98.9467 71.9547 95.0519 71.9547 90.2473C71.9547 85.4428 65.2579 81.548 56.997 81.548C48.7361 81.548 42.0393 85.4428 42.0393 90.2473C42.0393 95.0519 48.7361 98.9467 56.997 98.9467Z" fill="white"/>
<path d="M36.1525 45.4406C40.2829 38.2867 40.2561 30.5385 36.0926 28.1347C31.9291 25.7308 25.2055 29.5815 21.075 36.7354C16.9446 43.8894 16.9714 51.6375 21.1349 54.0414C25.2984 56.4453 32.022 52.5946 36.1525 45.4406Z" fill="white"/>
<path d="M92.9126 78.2107C97.0431 71.0568 97.0185 63.3099 92.8578 60.9077C88.6971 58.5054 81.9758 62.3574 77.8453 69.5114C73.7149 76.6653 73.7394 84.4121 77.9001 86.8144C82.0608 89.2166 88.7821 85.3646 92.9126 78.2107Z" fill="white"/>
<path d="M36.0947 86.8124C40.2582 84.4086 40.285 76.6604 36.1546 69.5065C32.0241 62.3525 25.3005 58.5018 21.137 60.9057C16.9735 63.3096 16.9467 71.0577 21.0771 78.2117C25.2076 85.3656 31.9312 89.2163 36.0947 86.8124Z" fill="white"/>
<path d="M92.8614 54.0433C97.022 51.6411 97.0466 43.8942 92.9161 36.7403C88.7857 29.5863 82.0644 25.7343 77.9037 28.1366C73.743 30.5388 73.7185 38.2857 77.8489 45.4396C81.9794 52.5936 88.7007 56.4456 92.8614 54.0433Z" fill="white"/>
</g>
<defs>
<clipPath id="clip0_149_211">
<rect width="78" height="82.9526" fill="white" transform="translate(18 16)"/>
</clipPath>
</defs>
</svg>
